<?xml version="1.0" encoding="UTF-8" standalone="no"?>
<!-- Created with Inkscape (http://www.inkscape.org/) -->

<svg
   version="1.1"
   id="svg2"
   width="157.33333"
   height="137.33333"
   viewBox="0 0 157.33333 137.33333"
   sodipodi:docname="nian.png"
   inkscape:version="1.2.1 (9c6d41e410, 2022-07-14)"
   inkscape:dataloss="true"
   xmlns:inkscape="http://www.inkscape.org/namespaces/inkscape"
   xmlns:sodipodi="http://sodipodi.sourceforge.net/DTD/sodipodi-0.dtd"
   xmlns="http://www.w3.org/2000/svg"
   xmlns:svg="http://www.w3.org/2000/svg">
  <defs
     id="defs6" />
  <sodipodi:namedview
     id="namedview4"
     pagecolor="#ffffff"
     bordercolor="#000000"
     borderopacity="0.25"
     inkscape:showpageshadow="2"
     inkscape:pageopacity="0.0"
     inkscape:pagecheckerboard="0"
     inkscape:deskcolor="#d1d1d1"
     showgrid="false"
     inkscape:zoom="2.5876378"
     inkscape:cx="27.631379"
     inkscape:cy="88.111251"
     inkscape:window-width="1366"
     inkscape:window-height="699"
     inkscape:window-x="0"
     inkscape:window-y="32"
     inkscape:window-maximized="1"
     inkscape:current-layer="g8" />
  <g
     inkscape:groupmode="layer"
     inkscape:label="Image"
     id="g8">
    <path
       style="fill:#000000;stroke-width:1.33333"
       d="M 45.333332,134.41644 C 24.627801,126.42569 9.5117143,110.18845 3.4481767,89.424663 0.48985902,79.294295 0.68470181,60.988308 3.8594131,50.78794 8.9154302,34.542924 21.955166,19.749109 38.611431,11.361149 52.261163,4.4872543 70.409581,-8.1140875e-4 69.666665,3.6812547 c -0.242018,1.199499 2.4741,1.6520785 9.914815,1.6520785 30.40764,0 56.64577,16.6871898 70.315,44.7196438 17.18877,35.250256 1.25126,65.994503 -42.82453,82.610653 -11.457325,4.3193 -12.249829,4.42723 -33.071952,4.50413 -18.670115,0.069 -22.248814,-0.27452 -28.666666,-2.75132 z m 48.666666,-4.65671 c 12.899302,-2.89415 30.117772,-11.51185 38.732672,-19.38539 4.58179,-4.18749 8.73175,-9.68845 11.4039,-15.11635 3.91716,-7.956869 4.1616,-9.281721 3.61919,-19.616032 C 146.93206,59.948735 140.55957,47.14021 126.70367,33.327901 111.24582,17.918681 92.923791,10.327442 70.666665,10.110478 64.433332,10.049715 58.938748,9.4542538 58.456477,8.7872307 56.370921,5.9027183 35.744201,17.562161 25.210957,27.579563 12.177314,39.974916 5.6049704,57.174299 7.1854596,74.751081 10.992789,117.09278 47.462324,140.20112 93.999998,129.75973 Z m -27.965759,-5.69352 c -2.816784,-5.44706 -2.555004,-11.54545 0.632426,-14.73288 2.211058,-2.21106 4.432155,-2.66416 13,-2.65199 20.219336,0.0287 22.133795,1.08925 18.869566,10.45303 -2.085036,5.98113 -4.063,5.21155 -3.040472,-1.18298 l 0.860607,-5.38195 -13.84485,0.38195 -13.844851,0.38194 0.03336,4.66667 c 0.01835,2.56666 0.479781,6.31666 1.025403,8.33333 1.332977,4.9268 -1.096218,4.75101 -3.691192,-0.26712 z M 50.141994,84.999998 C 45.547266,68.505617 41.322962,49.9502 41.849952,48.576887 c 1.000123,-2.606277 6.096528,-0.660337 6.76338,2.582434 0.321291,1.562372 2.114728,9.482832 3.985416,17.601023 1.870688,8.118189 3.401251,15.768189 3.401251,16.999999 0,3.400172 -4.875312,2.767376 -5.858005,-0.760345 z M 99.868795,69.666665 c -2.130838,-5.586617 -7.402772,-24.370918 -8.419692,-29.999999 -0.793768,-4.39384 -0.584277,-5 1.728012,-5 2.933779,0 6.806152,8.816529 10.208605,23.242717 2.52551,10.707977 2.4994,15.423949 -0.0854,15.423949 -1.11815,0 -2.66234,-1.65 -3.431535,-3.666667 z"
       id="path293" />
  </g>
</svg>
